<?xml version="1.0" encoding="utf-8"?>
<!-- Generator: Adobe Illustrator 23.0.0, SVG Export Plug-In . SVG Version: 6.00 Build 0)  -->
<svg version="1.1" id="图层_1" xmlns="http://www.w3.org/2000/svg" xmlns:xlink="http://www.w3.org/1999/xlink" x="0px" y="0px"
	 viewBox="0 0 40.8 20.4" style="enable-background:new 0 0 40.8 20.4;" xml:space="preserve">
<style type="text/css">
	.st0{fill:#FF0000;}
	.st1{fill:teal;}
</style>
<title>资源 1</title>
<g>
	<g id="图层_1-2">
		<path class="st0" d="M15.1,7.6c-0.2-0.6-0.8-1.1-1.5-1.1c-0.9,0.1-1.7,0.9-1.8,1.8c-0.3-1-1.3-1.6-2.3-1.5
			C8.9,7.1,8.4,7.7,8.4,8.4c-0.2,1.4,1.2,3.1,3.5,4.2C14.3,10.9,15.6,8.9,15.1,7.6z M12,11.8C10.7,11,9.9,9.9,10,9
			c0-0.3,0.2-0.9,0.6-1c0.4-0.1,1,0.2,1.3,1c0.1-0.7,0.6-1.1,1-1.1c0.4,0.1,0.7,0.4,0.8,0.8C14,9.5,13.4,10.8,12,11.8z"/>
		<path class="st0" d="M15.7,1.1c0.1-0.4,0.5-0.6,0.6-0.7c0.2-0.2,0.5-0.2,0.8-0.1c0.3,0.2,0.3,0.7,0.3,1c0,1.7-0.1,3.4-0.3,5.1
			C16.9,8,16.9,9.6,17,11.2c0,0.4,0.1,0.7,0.2,1c0.1,0.2,0.2,0.3,0.3,0.4c0.3,0.2,0.5,0.1,0.5,0.3c0,0.1,0,0.2-0.1,0.3
			c-0.2,0.2-0.7,0-1-0.3c-0.1-0.2-0.2-0.4-0.2-0.6c-0.1-0.5-0.2-0.9-0.2-1.4c0-1.3,0-2.6,0-4c0.1-3.7,0.1-4.2-0.2-4.7
			C16.1,2,15.6,1.6,15.7,1.1z"/>
		<path class="st0" d="M22.9,12.4c2.2-1,3.6-2.6,3.4-4c-0.1-0.7-0.5-1.2-1.1-1.5c-1-0.1-1.9,0.5-2.2,1.4c-0.3-1-1-1.7-1.7-1.7
			c-0.6,0.1-1.2,0.5-1.4,1.1C19.4,8.9,20.6,10.8,22.9,12.4z M21.1,8.7C21.2,8.3,21.6,8,21.9,8c0.4,0,0.8,0.4,1,1.1
			c0.3-0.7,0.9-1,1.3-0.9s0.5,0.6,0.6,0.9c0.1,0.9-0.7,1.9-2,2.6C21.5,10.7,20.9,9.5,21.1,8.7z"/>
		<path class="st0" d="M6.9,11.9c0,0-0.4-3.3,0.4-4.2c0.2-0.1,0.2-0.3,0.2-0.6c0-0.2-0.2-0.4-0.4-0.4S7,7.4,6.6,7.5s-0.7-0.2-1-0.3
			C4.3,6.7,2.9,6.8,1.8,7.6c-1.1,1.1-1.1,3-0.1,4.1c0.8,0.8,1.9,1.2,3,1c0.8-0.2,1.6-1.9,1.5,1.5c0,1.9,0.1,3-0.4,4.1
			c-0.3,0.9-0.5,1.1-1.5,1.3c-1.4,0.4-2.6,0-3-0.9c-0.2-0.5,0.1-1.3-0.1-1.3s-0.4,0.3-0.4,0.5c-0.3,0.6,0.4,1.4,0.4,1.5
			c0.9,1,2.2,1.3,3.5,0.9c0.9-0.3,0.9-0.1,1.6-1.5c0.1-0.2,0.3-0.3,0.6-3C7.1,14.2,7,12.6,6.9,11.9z M4.7,11.3
			c-1,0.1-1.9-0.4-2.3-1.3C2.3,9.5,2.4,9,2.8,8.8c0.5-0.2,1-0.1,1.4,0.3c0.1-0.5,0.4-0.9,0.9-0.9c0.5,0,0.8,0.6,0.9,1
			C6.3,10.1,4.8,11.2,4.7,11.3z"/>
		<path class="st0" d="M27.3,5.2c0.3-0.3,1.1,0.2,1.8,0.6c0.5,0.3,0.6,0.4,0.7,0.6c0.1,0.4-0.2,0.6-0.4,1c-0.4,0.7-0.1,1.6,0.4,3.4
			c0.3,1,0.5,1.6,0.7,1.6s0.3-0.4,0.7-1.6c0.4-1.2,0.9-2.4,1.5-3.5c0.2-0.2,0.4-0.4,0.5-0.6c0,0,0-0.1,0.1-0.1s0.1,0.4,0.1,0.5
			c-0.2,0.6-0.4,1.2-0.7,1.7c-0.8,1.4-0.4,2.2-1.6,4.6c-0.1,0.3-0.3,0.5-0.5,0.6c-0.5,0.1-1.1-1.1-1.5-1.9c-1-2-0.6-2.5-1.5-5.4
			C27.2,6,27,5.4,27.3,5.2z"/>
		<path class="st0" d="M41.2,12c-0.1-0.2-0.7,0-0.7,0c-0.3,0.1-0.6,0.3-0.9,0.5c-0.7,0.3-1.6,0.3-2.3-0.1c-0.8-0.4-1.4-1-1.8-1.8
			c-0.2-0.2-0.2-0.5-0.2-0.8c0.1-0.3,0.4-0.4,0.8-0.5c1.1-0.2,2.3-0.3,3.5-0.1c0.3,0.1,0.6,0,0.9-0.2c0.1-0.2,0.2-0.4,0.2-0.6
			c-0.1-0.8-1.2-1.6-2.2-1.9c-1.4-0.3-2.8,0.2-3.6,1.3c-0.5,0.8-0.7,1.7-0.5,2.6c0.2,0.8,0.7,1.5,1.4,2c0.6,0.5,1.4,0.8,2.2,0.9
			c1,0.2,2.1-0.1,2.9-0.8C40.9,12.5,41.2,12.2,41.2,12z M36.3,7.8c0.4-0.4,0.9-0.6,1.5-0.6c0.1,0,1.1,0.1,1.4,0.6
			c0.1,0.2,0.1,0.6-0.2,0.7c-0.1,0-0.1,0.1-0.2,0.1c-0.4,0.1-0.9-0.1-1.2-0.4c-0.4,0.2-0.8,0.3-1.2,0.3C36,8.4,36.2,8,36.3,7.8z"/>
	</g>
</g>
</svg>
