
<svg
      style="display:none"
      xmlns="http://www.w3.org/2000/svg"
      xmlns:xlink="http://www.w3.org/1999/xlink"
    >
      <symbol viewBox="0 0 76 31" id="bg_source_badge">
        <title>bg_source_badge</title>
       <path class="st0" d="M311.3,367.4c-1.4-1.4-2.7-2.9-4.1-4.4c-0.2-0.3-0.5-0.5-0.8-0.8c-0.2-0.2-0.3-0.3-0.5-0.5l0,0c-3.7-3.5-8.8-5.7-14.3-5.7
	s-10.6,2.2-14.4,5.7l0,0c-0.2,0.2-0.3,0.3-0.5,0.5c-0.3,0.3-0.5,0.5-0.8,0.8c-1.4,1.5-2.7,3-4.1,4.4c-5,5.1-11.7,6.1-18.3,6.3
	l76.1-0.1C323,373.4,316.3,372.5,311.3,367.4z"/>
      </symbol>
</svg>